<svg width="158" height="97" viewBox="0 0 158 97" fill="none" xmlns="http://www.w3.org/2000/svg">
<path d="M12.0909 95H0.272727L34.4545 1.90909H46.0909L80.2727 95H68.4545L40.6364 16.6364H39.9091L12.0909 95ZM16.4545 58.6364H64.0909V68.6364H16.4545V58.6364ZM145.682 25.1818C145.136 20.5758 142.924 17 139.045 14.4545C135.167 11.9091 130.409 10.6364 124.773 10.6364C120.652 10.6364 117.045 11.303 113.955 12.6364C110.894 13.9697 108.5 15.803 106.773 18.1364C105.076 20.4697 104.227 23.1212 104.227 26.0909C104.227 28.5758 104.818 30.7121 106 32.5C107.212 34.2576 108.758 35.7273 110.636 36.9091C112.515 38.0606 114.485 39.0151 116.545 39.7727C118.606 40.5 120.5 41.0909 122.227 41.5455L131.682 44.0909C134.106 44.7273 136.803 45.6061 139.773 46.7273C142.773 47.8485 145.636 49.3788 148.364 51.3182C151.121 53.2273 153.394 55.6818 155.182 58.6818C156.97 61.6818 157.864 65.3636 157.864 69.7273C157.864 74.7576 156.545 79.303 153.909 83.3636C151.303 87.4242 147.485 90.6515 142.455 93.0455C137.455 95.4394 131.379 96.6364 124.227 96.6364C117.561 96.6364 111.788 95.5606 106.909 93.4091C102.061 91.2576 98.2424 88.2576 95.4545 84.4091C92.697 80.5606 91.1364 76.0909 90.7727 71H102.409C102.712 74.5152 103.894 77.4242 105.955 79.7273C108.045 82 110.682 83.697 113.864 84.8182C117.076 85.9091 120.53 86.4545 124.227 86.4545C128.53 86.4545 132.394 85.7576 135.818 84.3636C139.242 82.9394 141.955 80.9697 143.955 78.4545C145.955 75.9091 146.955 72.9394 146.955 69.5455C146.955 66.4545 146.091 63.9394 144.364 62C142.636 60.0606 140.364 58.4848 137.545 57.2727C134.727 56.0606 131.682 55 128.409 54.0909L116.955 50.8182C109.682 48.7273 103.924 45.7424 99.6818 41.8636C95.4394 37.9848 93.3182 32.9091 93.3182 26.6364C93.3182 21.4242 94.7273 16.8788 97.5455 13C100.394 9.09091 104.212 6.0606 109 3.90909C113.818 1.72727 119.197 0.63636 125.136 0.63636C131.136 0.63636 136.47 1.71212 141.136 3.86363C145.803 5.98484 149.5 8.89393 152.227 12.5909C154.985 16.2879 156.439 20.4848 156.591 25.1818H145.682Z" fill="black"/>
</svg>
